<svg xmlns="http://www.w3.org/2000/svg" xmlns:xlink="http://www.w3.org/1999/xlink" version="1.1" x="0px" y="0px" viewBox="0 0 90 112.5" enable-background="new 0 0 90 90" xml:space="preserve"><g><path d="M85,76c0-5-1.12-11.01-2.386-17.106c-0.72-6.999-4.704-8.305-8.535-9.17c0.273,1.29,0.39,3.255,0.438,4.465   c-0.523-1.934-0.221-3.558-3.001-5.098c-0.348-0.093-0.686-0.202-1.014-0.316c-4.566-1.335-7.357-3.017-9.045-4.043   c0.546-0.437,0.838-0.862,0.775-1.387c0.005-0.115-0.179-0.285-0.259-0.358c0.118-0.15,0.279-0.429,0.284-0.552   c0.013-0.315-0.019-0.481-0.038-0.696c-1.532,1.039-5.666,1.39-7.242,1.356c1.251,0.7,4.325,0.716,6.242,0.27   c0.495,0.059,0.239,0.568-0.095,0.793c-0.996,0.289-1.873,0.617-2.861,0.552c1.049,0.452,2.141,0.619,2.647,1.429   c-0.349,0.642-1.041,1.475-1.681,1.797c-2.702,0.555-6.486,0.053-9.24-1.636c-2.839-0.211-7.794-3.192-11.213-6.081   c-0.807-0.68-1.718-2.366-1.845-3.752c-0.079,0.986-0.538,2.015-0.703,2.169l-0.003-0.006c-1.596,1.251-3.139,2.263-4.752,3.357   c-0.725,0.487-0.73,1.018-0.258,1.556L44.45,63.722l-14.032-20.18c-5.722,2.192-7.331,4.072-16.396,7.942   c1.683,1.143,2.526,3.06,3.089,5.358c-1.078-2.109-2.14-4.153-4.703-5.018c-2.391,0.73-5.923,3.68-5.657,6.269   C5.471,67.982,6,73,6,76l0,0v1.507c0,0,0.151,7.668,10.898,7.668c1.285,0,2.579,0.003,4.571,0.008   c-1.752-4.192-1.955-9.219-1.955-9.219c0.413,3.94,2.446,7.132,4.18,9.224c11.553,0.032,29.398,0.112,29.398,0.112   c3.293,0,5.663,1.102,6.477,3.122c1.05-2.361,2.688-2.56,4.824-2.829c2.608-0.328,5.441-0.419,9.33-0.419   C84.47,85.175,85,77.507,85,77.507V76L85,76z M37.731,42.26l-0.007-0.017c1.763,1.152,4.084,1.829,6.698,2.875   c2.492,2.004,4.75,4.525,7.796,5.57c-2.372,1.497-4.084,3.769-5.329,5.759C43.386,50.215,39.489,43.834,37.731,42.26z    M52.843,67.725c-1.13-2.39-3.268-6.468-5.627-10.691c1.492-1.26,3.018-2.511,4.487-3.413c0.5,1.239,0.971,2.31,1.791,3.287   l0.08-0.007C53.3,60.525,53.066,64.125,52.843,67.725z M56.893,56.597l0.04-0.002c0.04-0.531,0.228-3.438,0.194-4.185   c1.15,0.583,1.2,3.103,1.811,3.693l0.719,9.27C58.517,61.551,57.482,58.268,56.893,56.597z M66.134,73.107l7.994-0.863   C72.967,74.175,69.534,73.156,66.134,73.107z"/><path d="M38.506,34.052c-0.69,0.202-1.742,0.338-2.432,0.538C37.241,35.859,37.98,35.905,38.506,34.052z"/><path d="M32.424,29.51c-0.113-0.742-0.152-1.376-0.113-1.911c1.33-1.971,4.026-0.846,4.567,0.492   c0.897,0.763,0.881,0.736,2.239,1.006c0.907,0.18,1.925,0.298,2.809,0.446c0.903,0.153,1.994,0.385,2.834,0.466   c0.891,0.082,1.949,0.311,2.779,0.472c1.266,0.251,1.185,0.602,1.407,1.758c0.195,1.03,0.149,1.648,0.576,2.514   c0.268,0.538,1.092,1.273,1.863,1.344l0.637,0.059c1.96,0.183,3.753-0.575,4.728-1.495c0.386-0.365,1.125-1.363,1.327-1.885   c0.185-0.483,0.856-1.863,1.087-2.15c0.081-0.126,0.309-0.078,0.319,0.061c0.125,1.13,0.414,2.142,1.265,3.085   c0.438,0.437,1.004,0.672,1.696,0.705c1.115-0.202,2.116-0.664,2.805-1.849c0.753-1.135,1.304-2.069,1.546-4.38   c0.05-0.588,0.307-0.221,0.356-0.81c-0.09-0.968-0.889-0.737-1.221-0.718c-2.094-0.192-3.905,0.711-5.898,1.742   c-0.12,0.081-0.253,0.141-0.393,0.183c-0.354,0.026-0.742,0.034-1.148,0.029c-0.148-0.023-0.299-0.054-0.452-0.089   c-0.554-0.155-1.127-0.287-1.758-0.358c-1.371-0.289-5.356,0.133-5.917,0.384c-0.73,0.037-1.414,0.189-2.133,0.063   c-0.709-0.022-3.167-0.902-3.983-1.161c-2.334-0.745-5.765-1.578-8.585-1.842c-0.608,0.002-1.985-0.156-2.806,0.33   c1.31-1.592,4.986-0.8,11.736,0.842c-1.561-3.687-1.197-8.572,0.763-10.922C47,14.146,58.88,16.077,60.632,14.071   c1.79-2.048,4.128,2.103,3.955,6.598c1.556-10.868-6.75-15.982-15.622-16.656C42.447,4.248,38.23,6.251,35.538,9.082   c1.539,0.557,2.954,1.298,4.319,2.278c-1.644-0.798-3.22-1.328-4.862-1.682c-4.897,5.804-4.008,14.592-3.063,19.251   C32.093,29.148,32.257,29.346,32.424,29.51z M63.013,29.022c0.105-0.273,0.564-0.076,0.705-0.286   c0.262-0.392,0.44-0.859,0.608-1.244c0.692-0.233,1.228-0.287,1.613,0.336c0.367,1.298-0.315,2.959-0.911,4.06   c-0.148,0.242-0.714,0.934-0.699,0.97c-0.572,0.803-1.372,0.997-2.156,0.99c-0.205-0.026-1.051-0.619-1.141-0.966   c-0.033-0.125-0.145-0.535-0.223-1.053C62.503,31.113,62.981,29.103,63.013,29.022z M52.624,29.282l0.189-0.015   c-0.798,0.852-1.732,1.701-2.665,2.257C50.412,30.191,51.372,29.5,52.624,29.282z M50.116,31.725   c1.276-0.11,2.553-0.282,3.824-0.479l2.881,1.143c-0.011,0.111-0.025,0.244-0.05,0.412c-0.196,1.41-0.891,1.631-1.844,2.165   c-2.066,0.447-4.025,0.776-4.806-1.536l-0.044-1.127C50.077,32.098,50.091,31.907,50.116,31.725z"/><path d="M32.843,27.739c-0.51,1.881,0.789,2.094,0.975,3.141c1.567-0.05,2.735,0.534,4.321,1.207   C36.798,29.203,35.541,26.03,32.843,27.739z"/><path d="M56.303,36.904c0.864,1.246,2.566,2.282,3.116,2.596c1.238-0.584,1.638-0.878,2.037-1.315   C59.369,38.776,57.865,38.153,56.303,36.904z"/></g><text x="0" y="105" fill="#000000" font-size="5px" font-weight="bold" font-family="'Helvetica Neue', Helvetica, Arial-Unicode, Arial, Sans-serif">Created by Dmitry Kudinov</text><text x="0" y="110" fill="#000000" font-size="5px" font-weight="bold" font-family="'Helvetica Neue', Helvetica, Arial-Unicode, Arial, Sans-serif">from the Noun Project</text></svg>